# Blender 5.0.1
# www.blender.org
o TestCube
v -0.166500 -0.166500 -0.166500
v -0.166500 0.166500 -0.166500
v 0.166500 -0.166500 -0.166500
v 0.166500 0.166500 -0.166500
v -0.166500 -0.166500 0.166500
v -0.166500 0.166500 0.166500
v 0.166500 -0.166500 0.166500
v 0.166500 0.166500 0.166500
v 0.166500 -0.833500 -0.166500
v -0.166500 -0.833500 -0.166500
v -0.166500 0.833500 -0.166500
v 0.166500 0.833500 -0.166500
v 0.166500 0.833500 0.166500
v 0.166500 -0.833500 0.166500
v -0.166500 -0.833500 0.166500
v -0.166500 0.833500 0.166500
v 0.500000 -0.166500 -0.166500
v -0.500000 -0.166500 -0.166500
v -0.500000 0.166500 -0.166500
v 0.500000 0.166500 -0.166500
v 0.500000 -0.166500 0.166500
v 0.500000 0.166500 0.166500
v -0.500000 -0.166500 0.166500
v -0.500000 0.166500 0.166500
v -0.500000 -0.500000 -0.500000
v -0.500000 0.500000 -0.500000
v 0.500000 0.500000 -0.500000
v 0.500000 -0.500000 -0.500000
v 0.500000 -0.500000 0.500000
v 0.500000 0.500000 0.500000
v -0.500000 0.500000 0.500000
v -0.500000 -0.500000 0.500000
v 0.833500 0.166500 -0.166500
v 0.833500 -0.166500 -0.166500
v 0.833500 -0.166500 0.166500
v 0.833500 0.166500 0.166500
v -0.833500 -0.166500 -0.166500
v -0.833500 0.166500 -0.166500
v -0.833500 0.166500 0.166500
v -0.833500 -0.166500 0.166500
vn -0.0000 -0.0000 -1.0000
vn -0.0000 -0.0000 1.0000
vn -0.0000 -1.0000 -0.0000
vn -0.0000 1.0000 -0.0000
vn -0.0000 0.7071 -0.7071
vn 0.7071 -0.0000 -0.7071
vn -0.0000 -0.7071 -0.7071
vn -0.7071 -0.0000 -0.7071
vn -0.7071 -0.0000 0.7071
vn -0.0000 0.7071 0.7071
vn -0.0000 -0.7071 0.7071
vn 0.7071 -0.0000 0.7071
vn 0.7071 -0.7071 -0.0000
vn 0.7071 0.7071 -0.0000
vn -0.7071 -0.7071 -0.0000
vn -0.7071 0.7071 -0.0000
vn -1.0000 -0.0000 -0.0000
vn 1.0000 -0.0000 -0.0000
vt 0.458375 0.083375
vt 0.541625 0.083375
vt 0.541625 0.166625
vt 0.458375 0.166625
vt 0.541625 0.416625
vt 0.458375 0.416625
vt 0.479187 0.395813
vt 0.520813 0.395813
vt 0.458375 0.583375
vt 0.541625 0.583375
vt 0.541625 0.666625
vt 0.458375 0.666625
vt 0.458375 0.916625
vt 0.458375 0.833375
vt 0.479187 0.854187
vt 0.479187 0.895813
vt 0.208375 0.583375
vt 0.291625 0.583375
vt 0.291625 0.666625
vt 0.208375 0.666625
vt 0.708375 0.583375
vt 0.791625 0.583375
vt 0.791625 0.666625
vt 0.708375 0.666625
vt 0.375000 0.250000
vt 0.375000 0.000000
vt 0.625000 0.000000
vt 0.625000 0.250000
vt 0.375000 0.500000
vt 0.625000 0.500000
vt 0.375000 0.750000
vt 0.625000 0.750000
vt 0.125000 0.750000
vt 0.125000 0.500000
vt 0.875000 0.500000
vt 0.875000 0.750000
vt 0.541625 0.916625
vt 0.625000 1.000000
vt 0.375000 1.000000
vt 0.541625 0.333375
vt 0.458375 0.333375
vt 0.541625 0.833375
vt 0.479187 0.354187
vt 0.520813 0.354187
vt 0.520813 0.854187
vt 0.520813 0.895813
s 0
f 1/1/1 2/2/1 4/3/1 3/4/1
f 22/5/2 21/6/2 35/7/2 36/8/2
f 7/9/2 8/10/2 6/11/2 5/12/2
f 18/13/3 23/14/3 40/15/3 37/16/3
f 9/17/3 14/18/3 15/19/3 10/20/3
f 13/21/4 12/22/4 11/23/4 16/24/4
f 1/1/5 3/4/5 28/25/5 25/26/5
f 2/2/6 1/1/6 25/26/6 26/27/6
f 4/3/7 2/2/7 26/27/7 27/28/7
f 3/4/8 4/3/8 27/28/8 28/25/8
f 8/10/9 7/9/9 29/29/9 30/30/9
f 7/9/10 5/12/10 32/31/10 29/29/10
f 6/11/11 8/10/11 30/30/11 31/32/11
f 5/12/12 6/11/12 31/32/12 32/31/12
f 9/17/7 10/20/7 25/33/7 28/34/7
f 11/23/5 12/22/5 27/35/5 26/36/5
f 14/18/13 9/17/13 28/34/13 29/29/13
f 12/22/14 13/21/14 30/30/14 27/35/14
f 15/19/11 14/18/11 29/29/11 32/31/11
f 13/21/10 16/24/10 31/32/10 30/30/10
f 10/20/15 15/19/15 32/31/15 25/33/15
f 16/24/16 11/23/16 26/36/16 31/32/16
f 18/13/17 19/37/17 26/38/17 25/39/17
f 20/40/18 17/41/18 28/25/18 27/28/18
f 17/41/18 21/6/18 29/29/18 28/25/18
f 22/5/18 20/40/18 27/28/18 30/30/18
f 21/6/18 22/5/18 30/30/18 29/29/18
f 24/42/17 23/14/17 32/31/17 31/32/17
f 23/14/17 18/13/17 25/39/17 32/31/17
f 19/37/17 24/42/17 31/32/17 26/38/17
f 34/43/18 33/44/18 36/8/18 35/7/18
f 21/6/3 17/41/3 34/43/3 35/7/3
f 20/40/4 22/5/4 36/8/4 33/44/4
f 17/41/1 20/40/1 33/44/1 34/43/1
f 40/15/17 39/45/17 38/46/17 37/16/17
f 19/37/1 18/13/1 37/16/1 38/46/1
f 24/42/4 19/37/4 38/46/4 39/45/4
f 23/14/2 24/42/2 39/45/2 40/15/2
